<svg height="245.3" viewBox="0 0 256 245.3" width="256" xmlns="http://www.w3.org/2000/svg"><g fill="#231f20"><path d="m140.6 59.5a.4.4 0 0 1 -.1.3v-.2c0-.1 0-.1-.1-.2h.2z"/><path d="m238.3 36.1h-.8a1.5 1.5 0 0 0 .1-.6c0-.2 0-.2.1.1a1 1 0 0 0 .6.5z"/><path d="m230.6 218.9c-6.3 4.7-13.6 8.3-21.3 9-16.3 1.5-29.1-7-32.1-23.2-2-10.7.7-21.4 5-31.4a105.1 105.1 0 0 1 22.1-32.6 53.6 53.6 0 0 0 8.9 1.6c.9-.1 3.5.1 4.3 0l4.4-.4 2.9-.6a43.6 43.6 0 0 0 9.2-3.2c9-4.5 15.5-15.6 8.9-25-4.1-5.4-10-7.3-16.2-6.6a28.3 28.3 0 0 0 -11.8 4.8 127.8 127.8 0 0 0 -12.2 8.6l-1.1 1c-11.1-6.5-16.1-18.7-15.1-31.9.7-10.6 5-19.9 11.4-27.8 15.7 2.4 33.1 2.2 46.8-6.7 5.8-3.5 11.5-10.8 11.4-18.8a17.6 17.6 0 0 0 -17.7-18c-8.1-.2-14.9 3.2-21.8 6.6a100.3 100.3 0 0 0 -24.6 16.8l-6.3-1.3c.2-13.4-8.6-26.1-20.6-32.2-18.5-9.4-42.9-6.8-61.6.2-28.2 10.7-47.3 37.1-41.1 67.9a46.5 46.5 0 0 0 11.5 22.6c1 .8 2.2 2.1 3.2 3a66.3 66.3 0 0 0 6.9 4.9c7.5 4.3 16.3 7 24.5 9.4 5.5 1.7 10.7 3.3 15.6 6 14.1 7.2 20 22.5 17.5 38.4-2.9 22.6-19.4 40.1-38.9 50.9-23.6 13.8-55.4 20.6-77.1.5-9-8.7-13.7-22.6-9.7-34.8s16.5-21 29.6-23.4l.3-1c-5.8-4-13.7-4.5-20.4-2.5-18.9 5.2-28.1 25.6-24.8 44 4.1 25.8 27.2 42.9 52.3 45.3 20.1 2.1 40.1-4.7 57.5-14.3 23.5-12.5 43.9-34.9 47.6-62.3 3.7-22.4-5.2-44.9-25.7-55.9-11.6-6.5-25.1-8.3-36.9-14.1l-2.5-1.3-2.3-1.5a26.9 26.9 0 0 1 -9.9-14 36.9 36.9 0 0 1 -.9-18.4c5.5-27.3 37.2-38.9 62.5-37.1a38.6 38.6 0 0 1 14.2 3.8c5.4 2.9 9.3 7.6 10.3 12.7a75.5 75.5 0 0 0 -19 .1c-11.3 1.2-23.5 7.3-25.6 19.9a18.3 18.3 0 0 0 6 17.1c7.5 6 17.4 5.6 25.5 3.1a54.1 54.1 0 0 0 21.2-13 64.7 64.7 0 0 0 -6.4 23.9c-.8 12.9 2.5 26.4 10.6 36.6a45.6 45.6 0 0 0 9.6 9c-13.5 15-23.4 33.2-27.1 53.2-3 16.9 1.4 36.2 15.3 47.4 20.8 16.7 54.6 10.1 69.8-11 3.8-5.7 6.4-12.2 6.4-19.2a88.2 88.2 0 0 0 -8.4 5.2c-4.4 3-9.8 7-14.1 10zm-2-180.1 2.9-1.2a17.5 17.5 0 0 1 6-1.5 1.5 1.5 0 0 0 .1-.6c0-.2 0-.2.1.1a1 1 0 0 0 .6.5h-.9c-.8 2-4.9 4.1-7.4 5.1a49.3 49.3 0 0 1 -11.1 2.5 99 99 0 0 1 9.7-4.9zm-78.1 19.3c-2.9 1.2-6.9 2.3-9.9 1.4a.4.4 0 0 1 -.1.3v-.2c0-.1 0-.1-.1-.2h.2a5.4 5.4 0 0 1 3.2-2.7 40.7 40.7 0 0 1 13-2.1 38.3 38.3 0 0 1 -6.3 3.5z"/></g></svg>