<svg height="32" viewBox="0 0 32 32" width="32" xmlns="http://www.w3.org/2000/svg"><path d="m28.8 28a5.5 5.5 0 0 1 -2.7 1.2 3.6 3.6 0 0 1 -4-2.9 7 7 0 0 1 .7-4 10.9 10.9 0 0 1 2.7-4l1.1.2h1.5l1.1-.4a2.3 2.3 0 0 0 1.1-3.2 2.2 2.2 0 0 0 -2-.8 3.9 3.9 0 0 0 -1.5.6l-1.5 1.1h-.1a4.1 4.1 0 0 1 -1.9-4 6.1 6.1 0 0 1 1.4-3.4 7.8 7.8 0 0 0 5.8-.9 2.7 2.7 0 0 0 1.5-2.3 2.3 2.3 0 0 0 -2.2-2.3 6.6 6.6 0 0 0 -2.8.9 10.2 10.2 0 0 0 -3 2.1l-.8-.2a4.7 4.7 0 0 0 -2.6-4c-2.3-1.2-5.3-.9-7.7 0s-5.9 4.6-5.1 8.5a5.5 5.5 0 0 0 1.5 2.8c.1.1.2.3.4.4l.8.6a28.5 28.5 0 0 0 3.1 1.2l1.9.7a4.4 4.4 0 0 1 2.2 4.8 8.7 8.7 0 0 1 -4.9 6.3c-2.9 1.8-6.9 2.6-9.6.1a4.3 4.3 0 0 1 -1.2-4.3 4.9 4.9 0 0 1 3.7-3h.1a3.4 3.4 0 0 0 -2.6-.3 4.8 4.8 0 0 0 -3.1 5.4c.5 3.2 3.4 5.3 6.5 5.6a12.3 12.3 0 0 0 7.2-1.8c2.9-1.5 5.5-4.3 5.9-7.7a6.4 6.4 0 0 0 -3.2-7c-1.4-.8-3.1-1-4.6-1.7 0-.1-.2-.2-.3-.2l-.3-.2a3 3 0 0 1 -1.2-1.7 4.5 4.5 0 0 1 -.1-2.3c.7-3.4 4.6-4.9 7.8-4.6a5.8 5.8 0 0 1 1.8.4 2.7 2.7 0 0 1 1.2 1.6h-2.3c-1.4.2-3 .9-3.2 2.5a2.1 2.1 0 0 0 .7 2.1 3.4 3.4 0 0 0 3.2.4 6.3 6.3 0 0 0 2.6-1.6 7.3 7.3 0 0 0 -.7 3 6 6 0 0 0 1.3 4.5 4.6 4.6 0 0 0 1.2 1.2 12.7 12.7 0 0 0 -3.4 6.6 6.2 6.2 0 0 0 1.9 5.9 6.2 6.2 0 0 0 8.7-1.4 4.1 4.1 0 0 0 .8-2.4l-1.1.7zm-.3-22.4.4-.2.7-.2a2 2 0 0 1 -.9.6 3.2 3.2 0 0 1 -1.4.3zm-9.7 2.4a2.7 2.7 0 0 1 -1.2.2c0-.2.2-.3.4-.4a4.1 4.1 0 0 1 1.6-.2z" fill="#231f20"/></svg>