<svg height="64" viewBox="0 0 64 64" width="64" xmlns="http://www.w3.org/2000/svg"><path d="m57.6 56.2a10.4 10.4 0 0 1 -5.3 2.2c-4 .4-7.3-1.7-8-5.8a13.4 13.4 0 0 1 1.3-7.8 23.3 23.3 0 0 1 5.5-8.1l2.2.4h2.9a8.5 8.5 0 0 0 2.2-.9c2.3-1.1 3.9-3.8 2.3-6.2a4.3 4.3 0 0 0 -4.1-1.6 6.2 6.2 0 0 0 -2.9 1.2 20.2 20.2 0 0 0 -3 2.1l-.3.3c-2.8-1.6-4-4.7-3.8-8a12.2 12.2 0 0 1 2.9-6.9c3.9.6 8.2.5 11.6-1.7a5.8 5.8 0 0 0 2.9-4.9 4.4 4.4 0 0 0 -4.4-4.4c-2.1-.1-3.7.8-5.5 1.6a25.5 25.5 0 0 0 -6.1 4.2l-1.6-.3a9.2 9.2 0 0 0 -5.1-8.1c-4.6-2.3-10.7-1.7-15.3.1-7.1 2.7-11.8 9.2-10.3 16.9a10.8 10.8 0 0 0 2.9 5.6l.8.8 1.7 1.2a28.2 28.2 0 0 0 6.1 2.3 35.3 35.3 0 0 1 3.9 1.5c3.5 1.8 5 5.6 4.4 9.6-.8 5.6-4.9 10-9.8 12.7s-13.7 5.1-19.1.1a8.6 8.6 0 0 1 -2.5-8.7 9.8 9.8 0 0 1 7.4-5.8v-.2a6.1 6.1 0 0 0 -5.1-.7c-4.7 1.3-7 6.4-6.2 11 1 6.4 6.8 10.7 13 11.3s10-1.2 14.4-3.6 10.9-8.7 11.8-15.5-1.3-11.2-6.4-13.9c-2.9-1.6-6.2-2.1-9.2-3.5l-.6-.4-.6-.3a7.1 7.1 0 0 1 -2.4-3.5 9 9 0 0 1 -.3-4.6c1.4-6.8 9.3-9.7 15.6-9.2a10.6 10.6 0 0 1 3.6.9 4.7 4.7 0 0 1 2.5 3.2 18.5 18.5 0 0 0 -4.7 0c-2.8.3-5.9 1.8-6.4 4.9a4.7 4.7 0 0 0 1.6 4.3c1.9 1.5 4.3 1.4 6.4.8a13.6 13.6 0 0 0 5.2-3.3 15.6 15.6 0 0 0 -1.5 6 12.9 12.9 0 0 0 2.6 9.1 13.1 13.1 0 0 0 2.4 2.3 26.6 26.6 0 0 0 -6.8 13.2c-.7 4.2.4 9 3.8 11.8 5.2 4.2 13.6 2.5 17.4-2.7a8.6 8.6 0 0 0 1.6-4.8l-2.1 1.3zm-.5-44.9.7-.3 1.5-.4c-.2.5-1.2 1-1.8 1.2a7.4 7.4 0 0 1 -2.8.6zm-19.4 4.8a4.5 4.5 0 0 1 -2.5.4h-.1a.1.1 0 0 0 .1.1 1 1 0 0 1 .8-.7 8.6 8.6 0 0 1 3.2-.5z" fill="#231f20"/></svg>