<svg xmlns="http://www.w3.org/2000/svg" width="16" height="16" viewBox="0 0 16 16"><g id="_16PX" data-name="16PX"><path d="M14.4,14a3.1,3.1,0,0,1-1.3.6,1.8,1.8,0,0,1-2-1.5,3.2,3.2,0,0,1,.3-1.9,6,6,0,0,1,1.4-2.1h1.3l.5-.2a1.1,1.1,0,0,0,.6-1.6,1.3,1.3,0,0,0-1-.4,1.9,1.9,0,0,0-.8.3l-.7.5h-.1a2,2,0,0,1-.9-2,2.8,2.8,0,0,1,.7-1.7,4.8,4.8,0,0,0,2.9-.4A1.5,1.5,0,0,0,16,2.6a1.1,1.1,0,0,0-1.1-1.1,3.7,3.7,0,0,0-1.4.4,6.5,6.5,0,0,0-1.5,1h-.4a2.3,2.3,0,0,0-1.3-2A5,5,0,0,0,6.5.9,3.7,3.7,0,0,0,3.9,5.1a3.7,3.7,0,0,0,.7,1.4.2.2,0,0,1,.2.2l.5.3a6.7,6.7,0,0,0,1.5.6l1,.3a2.5,2.5,0,0,1,1.1,2.4,4.3,4.3,0,0,1-2.5,3.2c-1.4.9-3.4,1.3-4.8,0A2.3,2.3,0,0,1,1,11.4,2.6,2.6,0,0,1,2.9,9.9h0a1.5,1.5,0,0,0-1.3-.2A2.3,2.3,0,0,0,.1,12.4a3.5,3.5,0,0,0,3.2,2.9,6.4,6.4,0,0,0,3.6-.9,5.4,5.4,0,0,0,3-3.9A3.3,3.3,0,0,0,8.3,7c-.7-.4-1.6-.5-2.3-.9H5.7a2.4,2.4,0,0,1-.6-.9A1.7,1.7,0,0,1,5,3.9c.4-1.7,2.3-2.4,3.9-2.3l.9.3a.9.9,0,0,1,.6.8,2.4,2.4,0,0,0-1.2,0A1.6,1.6,0,0,0,7.6,3.9,1.5,1.5,0,0,0,8,5a2.3,2.3,0,0,0,1.6.2,3,3,0,0,0,1.3-.9,8.3,8.3,0,0,0-.4,1.5,3.7,3.7,0,0,0,.7,2.3l.6.6A7,7,0,0,0,10.1,12a3.1,3.1,0,0,0,1,3,3.1,3.1,0,0,0,4.3-.7,1.9,1.9,0,0,0,.4-1.2l-.5.3ZM14.3,2.8h.5c0,.1-.3.3-.4.3l-.7.2ZM9.4,4H8.8A.2.2,0,0,1,9,3.9h.8Z" fill="#231f20"/></g></svg>