<svg xmlns="http://www.w3.org/2000/svg" width="32" height="32" viewBox="0 0 32 32"><g id="_32PX" data-name="32PX"><path d="M28.8,28a5.5,5.5,0,0,1-2.7,1.2,3.6,3.6,0,0,1-4-2.9,7,7,0,0,1,.7-4,10.9,10.9,0,0,1,2.7-4l1.1.2h1.5l1.1-.4a2.3,2.3,0,0,0,1.1-3.2,2.2,2.2,0,0,0-2-.8,3.9,3.9,0,0,0-1.5.6l-1.5,1.1h-.1a4.1,4.1,0,0,1-1.9-4,6.1,6.1,0,0,1,1.4-3.4,7.8,7.8,0,0,0,5.8-.9A2.7,2.7,0,0,0,32,5.2a2.3,2.3,0,0,0-2.2-2.3,6.6,6.6,0,0,0-2.8.9,10.2,10.2,0,0,0-3,2.1l-.8-.2a4.7,4.7,0,0,0-2.6-4c-2.3-1.2-5.3-.9-7.7,0S7,6.3,7.8,10.2A5.5,5.5,0,0,0,9.3,13c.1.1.2.3.4.4l.8.6a28.5,28.5,0,0,0,3.1,1.2l1.9.7a4.4,4.4,0,0,1,2.2,4.8A8.7,8.7,0,0,1,12.8,27c-2.9,1.8-6.9,2.6-9.6.1A4.3,4.3,0,0,1,2,22.8a4.9,4.9,0,0,1,3.7-3h.1a3.4,3.4,0,0,0-2.6-.3A4.8,4.8,0,0,0,.1,24.9c.5,3.2,3.4,5.3,6.5,5.6a12.3,12.3,0,0,0,7.2-1.8c2.9-1.5,5.5-4.3,5.9-7.7a6.4,6.4,0,0,0-3.2-7c-1.4-.8-3.1-1-4.6-1.7,0-.1-.2-.2-.3-.2l-.3-.2a3,3,0,0,1-1.2-1.7A4.5,4.5,0,0,1,10,7.9c.7-3.4,4.6-4.9,7.8-4.6a5.8,5.8,0,0,1,1.8.4,2.7,2.7,0,0,1,1.2,1.6H18.5c-1.4.2-3,.9-3.2,2.5A2.1,2.1,0,0,0,16,9.9a3.4,3.4,0,0,0,3.2.4,6.3,6.3,0,0,0,2.6-1.6,7.3,7.3,0,0,0-.7,3,6,6,0,0,0,1.3,4.5,4.6,4.6,0,0,0,1.2,1.2A12.7,12.7,0,0,0,20.2,24a6.2,6.2,0,0,0,1.9,5.9,6.2,6.2,0,0,0,8.7-1.4,4.1,4.1,0,0,0,.8-2.4l-1.1.7ZM28.5,5.6l.4-.2.7-.2h0a2,2,0,0,1-.9.6,3.2,3.2,0,0,1-1.4.3ZM18.8,8a2.7,2.7,0,0,1-1.2.2h0c0-.2.2-.3.4-.4a4.1,4.1,0,0,1,1.6-.2Z" fill="#231f20"/></g></svg>